<?xml version="1.0" encoding="utf-8"?>
<!-- Generator: Adobe Illustrator 22.0.0, SVG Export Plug-In . SVG Version: 6.00 Build 0)  -->
<svg version="1.1" id="Layer_1" xmlns="http://www.w3.org/2000/svg" xmlns:xlink="http://www.w3.org/1999/xlink" x="0px" y="0px"
	 viewBox="0 0 404 404" style="enable-background:new 0 0 404 404;" xml:space="preserve">
<style type="text/css">
	.st0{display:none;fill:#FEFEFE;}
	.st1{fill:#386E77;}
	.st2{fill:#29222A;}
	.st3{fill:#2A232B;}
	.st4{fill:#010101;}
	.st5{fill:#131111;}
	.st6{fill:#020202;}
	.st7{fill:#0F424B;}
	.st8{fill:#11444D;}
	.st9{fill:#EFC6B1;}
	.st10{fill:#C37E59;}
	.st11{fill:#DCA688;}
	.st12{fill:#154952;}
	.st13{fill:#144952;}
	.st14{fill:#EFC6B0;}
	.st15{fill:#1D161E;}
	.st16{fill:#EEC4AE;}
	.st17{fill:#C17B56;}
	.st18{fill:#C37E5A;}
	.st19{fill:#C5815D;}
	.st20{fill:#E4BBA5;}
	.st21{fill:#E0AB8E;}
	.st22{fill:#E7B89E;}
	.st23{fill:#2B242C;}
	.st24{fill:#060504;}
	.st25{fill:#050404;}
	.st26{fill:#CE906F;}
	.st27{fill:#5B3362;}
	.st28{fill:#937C3C;}
	.st29{fill:#CE906E;}
	.st30{fill:#CD8F6D;}
	.st31{fill:#E6E9EB;}
	.st32{fill:#E1E3E3;}
	.st33{fill:#EEEFF1;}
	.st34{fill:#502C66;}
	.st35{fill:#885836;}
	.st36{fill:#442856;}
	.st37{fill:#C1C5C6;}
	.st38{fill:#F0F2F3;}
	.st39{fill:#452857;}
	.st40{fill:#BEC0C2;}
	.st41{fill:#BFBABB;}
	.st42{fill:#7D3B2D;}
	.st43{fill:#C6C8C0;}
	.st44{fill:#070602;}
	.st45{fill:#A29031;}
	.st46{fill:#010001;}
	.st47{fill:#127C40;}
	.st48{fill:#C1AD8A;}
	.st49{fill:#9E2726;}
	.st50{fill:#D0D5CC;}
	.st51{fill:#9E2423;}
	.st52{fill:#06793B;}
	.st53{fill:#BFAC87;}
</style>
<g>
	<path class="st0" d="M-33.8,204.4c0-77.1,0-154.2-0.1-231.3c0-4,0.8-4.8,4.8-4.8c154.6,0.1,309.2,0.1,463.7,0c4,0,4.8,0.8,4.8,4.8
		c-0.1,154.6-0.1,309.2,0,463.7c0,4-0.8,4.8-4.8,4.8c-154.6-0.1-309.2-0.1-463.7,0c-4,0-4.8-0.8-4.8-4.8
		C-33.8,359.4-33.8,281.9-33.8,204.4z"/>
	<path class="st1" d="M266.2,337.4c1.1,1.3,2.2,2.6,3.2,3.9c1.6,5,5.5,7.8,8.4,10.2c1.6,1.1,1.5-0.3,1.3,0.4c-0.1,0.2-0.3,0.2-0.6,0
		c-0.9-0.7-2-1.3-2.8-2.1c-0.9-1-2.3-2.1-1.4-3.5c1.1-1.7,2.3-0.1,3.5,0.3c16.1,5.9,31.8,12.8,48.4,17.5
		c13.8,3.9,27.5,7.7,41.5,10.3c5.6,1,10.4,4.5,15.6,6.7c2.6,1.1,1.2,4.1,3.9,4.7c3.5,0.7,3.2,4.6,4.8,6.9c1.7,2.4,3.3,4.9,4.2,7.7
		c0.4,1.2,0.3,2.3-0.6,3.3c-47.6,0-95.2,0-142.8,0.1c-1-6.9,2.5-12.9,4-19.2c3.1-12.9,6.3-25.8,6.2-39.2
		C263.1,342.4,263.3,339.3,266.2,337.4z"/>
	<path class="st1" d="M134.9,341.3c1.1-1.3,2.2-2.6,3.2-3.9c3.1,1.7,3.1,4.9,3.1,7.8c-0.3,17.9,5.1,34.7,9.7,51.7
		c0.6,2.3,1.6,4.4,0.6,6.8c-38,0-76,0.1-114.1,0.1c-9.6,0-19.2-0.1-28.8-0.2c-1.7-2.2-0.5-4.1,0.6-6c1.7-3.1,3.7-6,5.1-9.3
		c1-2.4,2.4-3.5,5-2c-2.7-2.5-0.3-3.8,1.4-4.8c5.4-3.3,10.9-6.4,17.2-7.5c25.8-4.5,50.6-12.1,74.7-22.1c4-1.6,8.1-2.7,12.1-4.3
		c1.3-0.5,3-2.1,4.2-0.2c1,1.7-0.7,2.8-2,3.7c-0.4,0.3-0.8,0.9-1,0.8C129.5,349.2,133.2,346.2,134.9,341.3z"/>
	<path class="st2" d="M244.7,5.2c1.6,0,3.2,0,4.8,0c26.4,9.6,46.8,26.8,62.6,49.8c16.9,24.7,19.1,52.2,15.1,80.8
		c-1.9,13.6-3,27.4-8.5,40.2c-0.8,1.8-0.4,3.9,0.1,5.8c0.2,3.1-0.8,6-1.6,9c-1.5,5.4-4.6,10.3-5.5,15.9c-2.8,5.9-5.9,11.8-7.9,18.1
		c-0.5,1.3-1.2,2.5-2.3,3.4c-2,1.8-3.1,0.9-3.7-1.3c-0.2-0.8-0.4-1.6-0.3-2.3c1.4-9.2,2.1-18.6,5-27.6c4.2-7.8,5.7-16.4,6.4-24.9
		c0.6-8.1,1.7-16.4,0.3-24.7c-2.4-14.1,1.2-27.7,2.8-41.5c1.6-14.2,1.8-28.3-3.3-41.9c-4.2-11.1-12.1-19.2-21.8-25.6
		c-3.7-2.4-7.6-4.7-12-6.2c-13.8-4.6-25,1.2-35.8,8.4c-5.1,3.4-9.9,7.1-15.1,10.2c-13.7,8.3-26.9,5.9-39.9-2.3
		c-8.8-5.6-16.8-12.2-26.3-16.6c-10.9-5.1-21.2-2.9-30.4,2.6c-27.8,16.7-39.5,41.8-37.1,74c0.8,10.6,4.5,20.7,5.4,31.3
		c0.3,3.3,0.3,6.6,0,9.9c-1,14.2-0.2,28.2,6.3,41.3c3.1,9.5,3.7,19.5,5.1,29.3c-0.2,2.4-0.6,4.7-3.2,5.7c-1.9,0.3-2.9-0.9-3.7-2.3
		c-1.4-3.4-3.3-6.6-5.3-9.7c-3.1-6.5-6.6-12.9-8.8-19.8c-0.7-2.3-2.1-4.5-1-7c4.5-4.4,5.1-4.3,6.8,1.1c1.2,4,4,7.4,4.2,10.3
		c-2.8-6.9-4-15.5-5.9-23.9c-2-8.9-2.1-17.9-0.9-26.9c0.8-5.7-0.7-11.3-1.8-16.9c-1.4-6.9-2.8-13.8-4-20.8c-2-11.8-0.2-23,3.5-34.1
		c-0.8,2.4-2.4,4.4-3.1,6.8c-0.7,2.4-0.9,5-1.7,7.4c-1.2,3.6-2.5,7.1-6.8,8.1c-2.7-1.5-1.6-3.8-0.9-5.7c6.2-18.8,14.9-36.1,28.4-51
		c13.3-14.7,28.8-25.9,46.6-34.1c2.5-1.2,5.2-1.7,7.8-2.6c1.6,0,3.2,0,4.8,0c1.5,4-2,4.8-4.2,5.6c-11.5,4.3-21.3,11.5-26.7,14.3
		c8.8-5.2,22.6-4,36.1,4.3c6.5,4,12.8,8.5,19.1,12.8c14.1,9.6,24,9.6,38.1,0.4c7.6-4.9,14.7-10.5,23-14.2c11.5-5,18-5.6,28.9-2.1
		c-4.2-2.8-8.6-5.3-12.8-8.2c-4.3-2.9-9.6-3.7-13.8-6.5C247.4,10.2,243.4,9.7,244.7,5.2z"/>
	<path class="st3" d="M244.7,5.2c1.2,4.5,5.6,5.5,8.9,6.7c9.7,3.4,17.6,9.6,27.3,15.9c-3.1-0.2-4.9,0-6.4-0.5
		c-14.8-5-26.6,2.2-38.4,9.3c-6.3,3.8-12.1,8.5-18.9,11.8c-11.2,5.5-21,2-30.4-3.9c-8-5-15.4-10.8-23.5-15.5
		c-13.5-7.9-27-5.5-40.1,2c-0.3-0.4-0.7-0.8-1-1.2c1.6-1.4,3.1-3.1,5-4.1C137.3,20,146.6,13,157.7,9.4c2-0.6,4.2-1.5,4.3-4.2
		C189.6,5.2,217.1,5.2,244.7,5.2z"/>
	<path class="st4" d="M317.8,182c-2-2-1.5-4.5-0.6-6.6c6-13.5,6.6-28,8.8-42.2c2.6-16.2,1.3-32.3-2.1-48.3
		c-2.8-13.3-10-24.5-17.6-35.4c-6.5-9.3-14.9-17-23.5-24.1c-6.8-5.6-14.5-10.6-22.7-14.2c-3.8-1.7-7.5-3.3-10.6-6
		c4.7-0.2,9.5-0.8,14,1.3c4.5,5,11.2,6.8,16.5,10.8c6.3,4.9,12.3,10,18.1,15.3c10.2,9.4,17.9,20.7,23.8,32.9c4,8.3,7.1,17.1,8,26.7
		c1.3,13.8,0,27.4-0.2,41.1c-0.1,7.3-3.1,14.1-3.8,21.3c0.3,1.3,0.2,2.6-0.2,3.9c-0.5,1.5-0.6,3.1-0.5,4.7c0,0.6,0,1.1,0,1.7
		c-0.9,5.5-3,10.5-5.2,15.5C319.4,181.3,318.7,181.8,317.8,182z"/>
	<path class="st5" d="M192.7,403.9c0.1-2.9-0.1-4.9-3.7-6.1c-2.7-0.9-4.8-3.8-7.1-5.7c-1.9-1.6-0.5-2.8,0.5-3.9
		c3.4-3.9,6.8-7.7,10.3-11.6c6.3-7.3,9.2-7.9,15.2-3.2c4.1,4.3,9.3,7.4,12.7,12.5c1.3,2,2.4,3.1,0.1,5.3c-2.5,2.3-4.2,5.6-7.6,6.8
		c-2.9,1.1-2.4,3.6-2.6,5.9C204.5,403.8,198.6,403.8,192.7,403.9z"/>
	<path class="st6" d="M157.3,5.2c-7.4,5.1-16.2,7.4-23.7,12.7c-10.1,7.2-20,14.2-28.2,23.7c-5.3,6.2-11,12.1-15,19.2
		c-6.7,11.8-13,23.8-15.6,37.4c1.4,1.4,1.4,3.2,1.3,5C75,116.1,75,129,76.4,142c0.3,2.8,1.2,6.4-2.6,8.1c-5.1-20.6-7.2-41.1-0.3-62
		C79,71,87.5,56,98.8,42.1c10-12.2,22-21.8,35.1-30.1c3-1.9,6.4-3.3,9.3-5.6C147.8,4.4,152.5,4.9,157.3,5.2z"/>
	<path class="st7" d="M134.9,341.3c1.1,5-3.1,6.9-5.7,9.5c-2,1.9-4.9,3-8.7,5.2c2.1-4.5,6.8-4.6,7.8-8.6c-5.5,1.9-10.9,3.5-15.7,5.9
		c-16.9,8.5-35.5,11.7-53,18.2c-6.1,2.3-12.9,2.9-19.5,3.8c-6.1,0.8-11.5,3.3-17,5.9c-3.7,1.8-5.7,3.7-1.4,8.1
		c-3.8-3.4-5.5-3.6-6.9,1.3c-1.3,4.6-5.9,7.8-6.3,13c-1.2,0.1-2.3,0.1-3.5,0.2c3.8-11,8.4-20.6,20.2-26.4c14.8-7.3,31-7.7,46.1-12.6
		c7.4-2.4,15-4.4,22.2-7.1c12.2-4.5,24.4-9.2,36.9-12.8C132.6,344.3,133.5,342.6,134.9,341.3z"/>
	<path class="st7" d="M395.8,403.6c-0.4-6.3-5.9-10.3-7.6-16.2c-0.9-3-2.9,1.8-5.5,1.3c4.9-4.4,1.4-5.8-2-7.7
		c-10.1-5.7-21.5-6.7-32.5-8.8c-5.8-1.1-11.1-3.7-16.7-5c-17.2-4.1-33.4-11.1-49.8-17.6c-2.1-0.8-4.1-2.1-6.4-3.2
		c0.9,4.6,5.7,5.2,8.4,8.4c-8.5-2-14.3-7.6-14.2-13.3c1.7,2.7,4.5,3,7.3,3.9c10.9,3.6,21.4,8.4,32.4,11.8
		c19.5,6,38.9,11.9,59.2,15.5c11.6,2.1,22.6,9.3,27.2,21.8c1.2,3.2,4.8,5.5,3.8,9.5C398.1,403.8,396.9,403.7,395.8,403.6z"/>
	<path class="st8" d="M151.5,403.7c-6.2-19.4-12.2-38.8-11.8-59.5c0-2.4-0.1-4.7-1.5-6.7c3.3-0.1,3.3,2.6,4.1,4.7
		c2.8,8,3,16.6,4,24.9c1.4,11.6,6.2,22.1,8.8,33.3c0.3,1.1,0.6,2.3,0.9,3.4C154.4,403.7,152.9,403.7,151.5,403.7z"/>
	<path class="st8" d="M266.2,337.4c-1.2,1.9-1.5,3.9-1.5,6.1c0.5,20.9-5.5,40.5-11.8,60.1c-1.5,0-3,0-4.4,0c2.5-7,3.8-14.3,6.4-21.2
		c3.4-9.2,3.9-19.1,5.1-28.8c0.5-4.3,0.9-8.6,2.5-12.6C263.1,339.4,263.3,337,266.2,337.4z"/>
	<path class="st9" d="M207.8,373.3c-6-3.3-10.7-0.8-15.2,3.2c3.4-5.5-0.7-8.1-4.4-10.3c-8.2-4.8-16.7-9.1-24.9-13.8
		c-6.3-3.7-10.5-8.9-10.7-16.7c-0.1-3.3-0.6-6.6-0.9-9.8c6.2,0.2,11.1,3.6,16,6.7c3.9,2.4,7.7,4.6,11.8,6.4
		c19.6,8.4,38,5.9,55.7-5.4c4.9-3.1,9.7-7.3,16.3-6c-0.2,0.7,0-0.2,0.3,0.5c0.3,0.5,0.4,0.4,0.3-0.1c-0.5-3.6-2.7-7.6,1.8-10.3
		c0.5,7.8,1.8,15.5-2,23.3c-2.2,4.4-5.8,7.4-9,10.2c-7.5,6.4-16.9,10-26.1,13.8C212.8,366.6,209,368.5,207.8,373.3z"/>
	<path class="st10" d="M254,317.6c-2.2,4.5-0.3,9.4-1.3,14.1c-1.7-0.6-0.6-2.3-1.1-3.3c-1.8-3.1-1.3-6.5-1.4-9.8
		c-0.1-6-1.1-6.6-6.6-4.1c-5.2,2.4-9.8,5.8-14.9,8.2c-17.6,8.4-35.1,8.4-52.7,0c-5.5-2.6-10.4-6.2-16-8.7c-3.4-1.5-5.6-1.3-5.7,3.3
		c0,1.9,0.6,4.6-2.6,5c-0.5-4.1-1-8.2-1.3-12.2c-0.2-2-0.8-3.3-2.8-4.6c-17.5-11.5-30.5-27-39.7-45.7c-2.3-4.6-3.2-9.9-4.6-15
		c-0.5-1.8-0.8-3.7-3.1-3.6c-8.2,0.3-9.8-6.5-11.7-11.7c-2.1-5.9-5.2-11.1-8.9-15.6c-12-14.5-13.2-31.3-11.6-48.7
		c0.3-3.9,3.4-6.9,6.6-9.3c3,3.3,3.2,7.5,3.6,11.5c-1.4,5.3-1.9,10.8-1.9,16.3c0,1.5,0,3.6-1.9,3.8c-2,0.2-2-2.1-2.4-3.5
		c-1.6-5.6-0.1-11.3,0.5-18c-3.1,16.7,0.7,30.9,9.7,43.6c4.7,6.6,8.2,13.8,12.1,20.8c1,1.8,1.6,4,4.2,5c1-5.3-1.6-9.5-2.7-13.9
		c-0.7-2.6-2-5.2,0.1-7.8c2.1,2.9,4.7,5.6,5,9.5c4,7.9,6.1,16.4,8.2,25c3.5,14.2,11.6,26.1,21.5,36.6c5.8,6.1,11.5,12.7,19.3,16.2
		c11.8,5.4,22,13.5,34.1,18.3c15.3,6.1,29.9,4.1,43.7-3.3c10.2-5.4,20.7-10.5,30-17.2c19.4-14.1,34.1-31.7,38.8-56.2
		c1-5.4,3-10.6,5.3-15.6c0.6-1.2,1.7-2.3,0.9-3.8c1.8-6,4.4-11.7,7.8-17c3.2,3,2.9,5.5,0.6,9.4c-3.4,5.7-5.1,12.4-6,20.4
		c4-2.7,4.8-5.9,6-8.6c3.8-8,9.2-15,13.5-22.6c6.4-11.5,9.9-23.8,7-37.2c-0.3-1.5-0.9-3-1.7-4.4c-0.3-0.4-0.6-0.8-0.9-1.2
		c-0.9-1.9-3-2.5-4.2-4c0.1-1.2-0.5-2.7,1-3.6c6.1,1.4,10.3,7.6,10.9,14.8c1.4,16.9-2.3,32.2-13.1,45.4c-5.7,6.9-7.5,15.8-12.6,23
		c-0.7,0.9-0.9,2.6-2,2.6c-9.2-0.3-8.9,7.2-10.3,12.7c-3.1,12.1-10.3,21.6-17.9,30.9c-7,8.6-15.2,16-24.6,22
		C252.1,308.7,254.8,313.8,254,317.6z"/>
	<path class="st11" d="M151.5,322.4c2.2-2.4,1-5.3,1.1-7.9c0.1-3.7,1.5-4.3,4.8-3.2c6.5,2.2,11.9,6.6,18,9.6
		c17.6,8.8,35.2,8.8,52.9,0.4c6-2.8,11.2-7,17.4-9.4c4.2-1.6,6.3-1.6,6.1,3.7c-0.2,4.3-0.1,8.6-0.2,12.9c-5.5-1-10,2.5-13.4,5.2
		c-14.9,11.5-31.7,13.2-49.1,10.9c-6.2-0.8-12.4-4.5-17.9-8c-4.6-2.9-9.8-4.6-13.9-8.2c-1.7-1.4-5,1.4-5.5-2.3
		C151.6,324.8,151.6,323.6,151.5,322.4z"/>
	<path class="st3" d="M77.2,167.8c-0.7-4-2.8-7.7-2.7-11.8c-0.3-2-0.5-3.9-0.8-5.9c1.9-2.2,1.2-4.9,0.9-7.3
		c-1.8-14.9-1.7-29.8,0.2-44.6c3.6-2.2,5.8-5.3,6-9.5c0.4-7.1,4.8-12.3,8.6-17.9c-1.1,6-2.9,11.9-4.2,17.8
		c-2.8,12.9,0.2,25.2,2.7,37.6c1.8,9,3.5,17.7,2.3,27.1c-1.8,14.4,3,28.2,6,42.1c0.5,2.3,1.2,4.4,0.2,8c-1.6-7.1-7.1-11.3-6.6-18.5
		c-1.9,1.3-3.3,2.3-4.7,3.2c-1.8,0-2.4-1.5-3.2-2.7C79.3,179.8,77.7,173.9,77.2,167.8z"/>
	<path class="st12" d="M304.5,371.8c2,6.4,1.9,6.6-15.4,19.1c1.1-4.6,4.9-6.7,7.1-9.8C298.5,377.9,302.4,376.4,304.5,371.8z"/>
	<path class="st13" d="M99.5,372.3c5.5,6.2,11.9,10.9,15.9,17.8C105.9,386.6,98.1,378.2,99.5,372.3z"/>
	<path class="st14" d="M302.7,223.4c0.2,0.3,0.7,0.7,0.6,0.9c-4.5,11.8-5.7,24.5-11,36.2c-6.8,15-17.7,26.5-29.7,37
		c-4.3,3.7-9.2,7.2-15.4,8.8c-5,1.3-9.3,5.5-13.9,8.3c-20.9,13.1-41.4,13.2-62.2,0c-8.4-5.3-17.4-9.8-26.1-14.7
		c-7.3-4-12.3-10.6-17.8-16.4c-2.8-3-5.8-6.4-8.1-10.2c-5.9-9.5-11-19-12.7-30.3c-1-6.7-4.7-12.8-5.7-19.6c0.7,0.8,1.4,1.6,2.1,2.4
		c1.3,0.6,3,1,2.7,2.4c-1.1-2,1.6-4.6-0.1-7.3c-1.3-9.9-2.3-19.8-4.8-29.4c-2.3-11.5-3.5-23.2-5-34.9c-0.2-1.5,0.1-3.2,0.8-4.6
		c5.1-9.8,3.8-20,1-29.9c-6.5-22.9-3-44.5,8.5-64.7c5.7-10,15-17.3,25.6-21.9c11.2-4.9,21.9-2.8,31.3,5.1c3.8,3.2,7.9,6,11,9.7
		c11.8,14.1,42.6,14.7,56.4,2.6c4-3.5,8.5-6.3,12.8-9.5c22-16.6,42.9-7.5,55.3,12.5c4,6.5,6.9,13.6,9.7,20.8c3.5,9,1.6,17.9,0,26.7
		c-1.8,9.7-2.7,19.4-3.8,29.2c-0.5,4.5-0.5,9.1,1,13.4c3.1,9.4,3,18.9,1.5,28.5c-1.2,7.5-0.8,15.3-3,22.7c-2.7,10.2-3.6,20.6-5.3,32
		C300.8,227,302.1,225.5,302.7,223.4z"/>
	<path class="st15" d="M303.8,197.3c-0.6-9,0.9-17.8,1.9-26.7c0.8-6.9,1.2-13.9-1.2-20.9c-4.7-13.7-1.3-27.5,1.1-40.9
		c2.5-14.1,4.2-27.7-2.2-41c-6.1-12.6-13.5-24.7-27.5-29.8c-7.1-2.6-15.2-2.9-22.5,1.1c-8.3,4.5-15.6,10.4-23.1,16.1
		c-8.4,6.4-18.3,8-28.8,7.9c-13.8,0-24.1-6.3-33.2-16c-5.7-6.1-12.3-11.1-21-12.4c-7.9-1.2-14.8,0.8-21.1,5.5
		c-6.3,4.7-12.7,9.2-17.2,16c-3,4.6-6.1,9.3-7.7,14.2c-5.6,17.3-6.9,34.9-1.7,52.9c2.7,9.3,4.1,19.4-1.4,29
		c-3,5.3,0.5,11.2,1.1,16.9c0.9,7.3,2.1,14.6,1.4,22c-2.6-1.1-2.8-3.8-3.2-6c-3-13-5-25.9-3-39.5c0.8-5.9-0.8-12.4-2.6-18.4
		c-6-21.2-5.2-42.1,4.1-62.3c6.8-14.8,18.2-25.7,32.1-33.3c12.7-6.9,25.9-5.7,38.2,2.6c9,6.1,17.6,12.7,27.7,17.3
		c12.1,5.5,22.4,2,32.5-4.5c10.5-6.7,20-14.8,32.6-17.8c6.9-1.7,13.6-0.4,18.8,2.1C299.4,42,313,57.5,314.3,84.3
		c0.8,16.8-2.7,33.1-4.6,49.5c-0.4,3.6,0.6,7,0.9,10.5c1.6,17,0.2,33.9-4.7,50.3C305.6,195.9,304.9,196.7,303.8,197.3z"/>
	<path class="st16" d="M329.6,161.9c5.8,5.5,5.1,12.6,4.2,19.4c-1.8,12.9-5.9,24.7-14.9,34.7c-3.8,4.2-5.4,10.3-8,15.5
		c-0.3,0.5-0.1,1.3-0.5,1.7c-1.7,1.9-2.3,6.1-5.6,4.8c-2.5-1-1.6-4.7-0.8-6.9c2.5-6.6,2.6-14.2,8-19.8c1.4-1.5-2.3-2.9-1.6-5
		c0.4-5.8,3.9-10.6,5.2-16.1c5.2,2.8,3.1,7.5,2.9,11.8c3.5-4.4,2.6-9.2,1.7-14c-0.5-2.4-1.7-4.7-1.4-7.3c1.7-5.5,3.3-11,5-16.5
		c3.4-1.2,3.9,1.5,4.7,3.6c1.9,5.4,1.8,10.9,1.6,15.9c0.4-4.8,0.1-10.1-1.2-15.3C328.3,166.2,327.7,163.9,329.6,161.9z"/>
	<path class="st16" d="M77.2,167.8c3.4,5.4,3.1,12,6,17.5c0.6,2.7-0.6,5.3-0.9,7.9c-0.4,3.5,0.7,6.5,3.1,9.3c0.7-3-2-6.8,2.2-8.7
		c1.3,7.3,6.2,13.1,8.3,20c0,5.8,3,10.8,4.2,16.4c0.6,2.8,2.1,6.9-0.6,7.9c-3.3,1.2-4.8-2.6-6.1-5.6c-4-8.8-9.4-16.8-14.5-25
		c-8.1-12.8-11.1-27-7.3-42c0.3-1.1,0.9-2,1.9-4.1c1.4,9.2-3.2,17.5,1,25.8C75.5,180.5,73.2,173.6,77.2,167.8z"/>
	<path class="st17" d="M318.9,180.8c2.4,4.3,3.8,8.8,3.9,13.8c0.1,4.5-1.3,7.9-5.8,10.7c-0.1-5.3,2.6-10.6-1.2-15
		c0.7-2.8,1.4-5.5,2.1-8.3C318.2,181.6,318.5,181.2,318.9,180.8z"/>
	<path class="st18" d="M87.5,193.8c-2.9,4,0.4,8.1,0.1,12.4c-7.8-5.4-8.9-10.7-4.5-20.8c0.7,0.9,1.3,1.8,2,2.6
		C85.9,189.9,86.7,191.9,87.5,193.8z"/>
	<path class="st3" d="M105.4,220.9c1.8,2.6,1,5.5,1.1,9.7c-1.7-2.2-2.7-3.5-3.7-4.8C105.2,224.9,105.5,223,105.4,220.9z"/>
	<path class="st19" d="M329.6,161.9c0.8,7.8,2,15.6,0.6,23.6c-1.2-7.4,0.5-15.5-6.3-21.2c0-0.4,0-0.8,0-1.2
		C325.3,160.4,327.3,160.3,329.6,161.9L329.6,161.9z"/>
	<path class="st20" d="M329.6,162c-2.1-0.3-4,0.1-5.8,1.1c-0.3-1.7-0.3-3.4,1-4.8C327.4,158.3,329.5,158.8,329.6,162z"/>
	<path class="st21" d="M195.6,186.7c3.9,11.4,1.3,22.4-1.9,33.3c-1.8,6-2.1,11.8,3.9,15.7c5.2,3.3,10.7,2.2,16.2,0.3
		c2.5-0.8,5.2-6,8-0.4c1.9,3.8-0.8,9.9-5.6,10.6c-9.4,1.5-19.1,1.4-28.3-1c-6.3-1.6-8.8-10-5.4-16.2c6.4-11.8,11.3-23.9,11.6-37.5
		c0-0.9,0.5-1.9,0.8-2.8C195,187.9,195.3,187.3,195.6,186.7z"/>
	<path class="st22" d="M178.6,155.1c1.9,2.5,3.9,4.8,5.7,7.4c4,5.6,2.6,14-2.9,18.2c-7.3,5.5-15.5,6.4-24.2,4.8
		c1.4-3.8,5.6-2.2,7.9-4.1c2.7-1.7,7.6,0.2,8.3-4.9c-0.5-6-5.4-10.9-12.7-13.1c-4.3-1.3-9.3-1.3-12.7-4.9c-0.6-3.3-3.3-2.1-5.2-2.2
		c-2.1-0.2-4.2,0-6.4-0.7c7.8-0.7,15.6-0.2,23.1-2.8c1.5-0.5,3-0.8,3.8-2.3C169.3,148.9,174.1,151.3,178.6,155.1z"/>
	<path class="st22" d="M240,150.4c4.3,4.1,10,3.8,15.3,4.4c3.8,0.4,7.8,0.1,12.4,0.1c-3.8,3.1-8.9-1.3-11.2,3.5
		c-1.4,2.4-3.9,2.4-6.1,2.9c-5.7,1.3-11.4,3-15.9,7c-2.3,2.1-5.5,4-4.4,8.1c1.3,3.1,4,4.1,6.8,4.8c2.2,1.1,5.2,1,6.6,3.6
		c-7.6,4-14,0.1-20.1-3.6c-5.5-3.3-6.5-8.8-5.9-14.9c0.5-5,6.1-6.6,7-11.2C229.2,151.8,234.1,149.5,240,150.4z"/>
	<path class="st23" d="M178.6,155.1c-5.1-1.6-10.2-3.2-15.4-4.8c-6.9-2.1-13.7-4.3-20.6-6.2c-10.1-2.8-19.8-1.9-28.6,4.2
		c-0.7,0.5-1.3,0.8-2.4,0.1c4.8-8.1,12.5-11.3,21.3-12.3c8.3-0.9,16.4,0.4,24.2,3c7.7,2.6,16,3.5,23.1,7.9c1.8,1.1,5,1.3,4.3,4.6
		C184,154.9,181.1,154.9,178.6,155.1z"/>
	<path class="st23" d="M240,150.4c-5.1,1.6-10.3,3.1-15.4,4.7c-2-0.4-4.4,0.2-4.9-2.9c-0.5-3,1.5-3.7,3.5-4.6
		c15.3-6.8,30.9-12.4,47.9-11.4c8.6,0.5,16.4,3.8,20.5,12.6c-3.4-1.6-6.6-3.6-10.1-4.8c-7.3-2.4-14.8-1.5-22.1,0.4
		C252.9,146.1,246.4,148.4,240,150.4z"/>
	<path class="st24" d="M229.3,176.3c-1,0.3-2.7,1.1-1.9-1c2.5-6.5,7.8-10.7,13.9-13.2c4.8-1.9,10-2.6,15.1-3.8c6,0,12.1,0.1,17.9,2
		c6.7,2.2,8.2,5.5,5.4,11.9c-3.8,8.7-11.2,12-19.8,13.2c-3.4,0.5-7-0.1-10.5-0.1c0.3-2.7,2.6-2.1,4.3-2.5c2,0,4-0.1,6-0.6
		c5.4-1.3,10.7-2.6,14.3-7.4c1.5-2,2.7-3.9,1.1-6.4c-4.2-3.2-9.1-3.9-14.3-3.7c-2.1,0-4.1,0-6.2,0.1c-4.1,0.2-7.9,1.3-11.6,2.9
		C237.5,169,234,173.6,229.3,176.3z"/>
	<path class="st25" d="M147.9,158.4c8,2.3,16.4,3.3,23,9.2c2.5,2.3,4.1,5.1,5,8.2c0.5,1.7-1.2,0.3-1.9,0.3c-0.9-0.1-1.5-0.5-2.1-1.1
		c-2.6-4-6.8-5.6-11-7.3c-1-0.4-2-0.8-3-1.1c-1.6-0.5-3.1-0.9-4.7-1.3c-4.4-0.3-8.7-2-13.2-1.1c-4,1.1-8.4,1.1-11.5,4.6
		c-0.5,1.8-0.3,3.7-1,5.5c-0.3,0.5-0.7,0.9-1.2,1.1c-6.3-5.8-5.2-12.1,2.6-14.8C135.1,158.2,141.5,158.3,147.9,158.4z"/>
	<path class="st26" d="M202.4,276.4c-7.7-1-17.8-2.3-27.8-3.6c-1.4-0.2-3.1-0.9-2.5-2.5c0.7-1.7,2.8-1.2,4.2-0.7
		c10.8,3.5,22,3.2,33.1,3.4c6.8,0.1,13.1-1.5,19.4-4c1.3-0.5,3.2-1.8,3.7,0.7c0.4,1.8-1.1,2.9-2.9,3
		C221.3,273.5,213.3,276.4,202.4,276.4z"/>
	<path class="st27" d="M165.7,182c-2,3.2-6,1.5-8.6,3.4c-1.5,0-3,0-4.5,0c-0.8-0.4-1.7-0.8-2.1-1.7c-0.7-2.2-0.7-4.3,0.1-6.4
		c1-1.8,2.4-2.9,4.4-3.5c2.2-0.4,4.4-0.5,6.5,0.4c0.5,0.3,0.9,0.8,1.1,1.3c0.2,2.9-0.9,5-3.1,6.6C161.4,182,163.6,179.8,165.7,182z"
		/>
	<path class="st28" d="M254,184.2c-1.5,0.4-3.3-0.3-4.5,1.1c-2.1,0.8-3.9-0.8-6-0.6c-2.3-0.8-4.6-1.6-6.9-2.4
		c2.7-3.2,6.3,0.3,9.2-1.1c2.1-0.7,1.5-2.9,2.2-4.3c0.8-1,1.7-1.5,3-1.5c1.6,0.2,3.1,0.9,3.9,2.4C255.7,180.1,255.9,182.3,254,184.2
		z"/>
	<path class="st25" d="M151.2,184.2c0.5,0.4,0.9,0.8,1.4,1.2c-7.2,1.2-13.9-0.5-20.5-3.5c-3-1.3-5.3-3.3-5.9-6.8
		c0.2-0.2,0.4-0.3,0.6-0.5c1.5-0.8,2.6,0,3.5,1c3.7,3.7,8.2,5.4,13.2,6.5C146,183.3,149,182.2,151.2,184.2z"/>
	<path class="st29" d="M195,286c5.8,0,10.5,0,16.8,0C205.5,288.8,200.9,288.9,195,286z"/>
	<path class="st30" d="M76.9,188c0.5,4.7-0.2,8.3,0.9,11.6C76.3,196.3,73.1,193.2,76.9,188z"/>
	<path class="st31" d="M165.7,182c-2.6-0.5-4.8,1.7-7.1,1c1.2-2.3,2.4-4.6,3.7-6.9c0.7-1.9-1.3-4.5,1.1-5.7c2.2-1.1,3.9,0.9,5.7,1.9
		c1.3,0.7,2.6,1.7,3.8,2.6c0.4,0.4,0.8,0.8,1.2,1.2C174.3,182.3,169.6,181.6,165.7,182z"/>
	<path class="st32" d="M246.7,182.1c-3.3,3-6.7-1.7-10,0.2c-3.5-0.7-7.3-1-7.4-6c2.8-5.3,7.5-8.2,13.1-9.8c2.9,0.4,1,2.6,1.5,3.8
		c-0.1,1.3-0.1,2.6,0,3.9c0.1,1.5,0.5,3,1,4.4C245.3,179.9,246.3,180.8,246.7,182.1z"/>
	<path class="st33" d="M276.9,167.6c1,4.9-4.2,12.8-9.5,14.3c-2.4,0.7-4.9,0.9-7.4,1.3c0.2-3.4,4.1-5.1,3.7-8.7
		c0.7-2.8-1.5-6.2,1.6-8.5C269.3,165.2,273,166.9,276.9,167.6z"/>
	<path class="st34" d="M264.9,175.1c0.8,4.2-1.8,6.3-4.9,8.2c-1.7,2.2-4,0.7-6,1c0-2.2,0-4.5,0-6.7c0.6-2.2,2.4-3,4.3-3.7
		C260.6,173.4,263,173,264.9,175.1z"/>
	<path class="st35" d="M264.9,175.1c-2.3-0.1-4.6-0.2-7-0.2c-1.8-1.3-1.6-3-1-4.8c0.2-0.3,0.5-0.6,0.7-0.9c0.8-0.9,2.4,0.3,2.9-1.1
		c0.1-0.3-0.2-0.7-0.6-0.9c-2.2-0.8-1.4,1.9-2.6,2.2c-1.9,0.7-3.4-0.2-4.7-1.5c-0.9-2-0.5-3.6,1.4-4.7c2.5-0.4,5.1-0.6,7.6,0
		c1.3,1,3.1,1.5,3.3,3.6C264.4,169.6,266.4,172.3,264.9,175.1z"/>
	<path class="st36" d="M253.9,163.2c-0.3,1.5-0.5,2.9-0.8,4.4c-0.5,2.3-2.1,3.6-4.1,4.6c-2.7,0.8-4.9,0-6.7-2
		c-1-1.3,1.7-2.4,0.1-3.7C245.9,164.2,249.9,163.8,253.9,163.2z"/>
	<path class="st37" d="M264.8,166.8c-1.1-1.2-2.2-2.4-3.3-3.6c5.7-0.6,10.9,0.8,15.4,4.4C272.8,168.6,268.9,167,264.8,166.8z"/>
	<path class="st38" d="M143.5,183.4c-7.1,0.1-11.7-4.6-16.6-8.7c0-2.3,0-4.5-0.1-6.8c4-1.5,8-3,12.4-1.9c1.2,0.7,1.5,1.9,1.6,3.2
		c0,1.9-0.8,3.7-0.3,5.6c0.4,1.6,0.5,3.3,1.4,4.8c0.7,1,1.9,1.4,2.6,2.3C144.7,182.8,144.4,183.3,143.5,183.4z"/>
	<path class="st39" d="M139.7,170.4c0-1.2-0.1-2.5-0.1-3.7c0.2-1.2,0.7-2.5,0-3.7c4.9-1.8,9.5,0.4,14.1,1.2c0.2,1.4,0.1,2.8-0.8,4
		c-2.4,1.2-4.5,2.7-6.3,4.8C144,173.1,141.4,173.1,139.7,170.4z"/>
	<path class="st40" d="M139.6,162.9c0.9,0.3,1.7,0.5,2.6,0.8c-0.5,1.3-1.4,2.3-2.6,2.9c-4.3,0.1-8.4,1.8-12.8,1.2
		C130.1,163.7,135.1,163.8,139.6,162.9z"/>
	<path class="st41" d="M172.8,174.9c-3.7,0.6-5.6-2.9-8.8-3.8c-1.5,1.4,0.1,3.9-1.8,5c-0.1-0.4-0.2-0.8-0.2-1.1
		c-1.7-2.5-1.9-5.2-1.1-8.1C165.8,168.1,170.7,169.3,172.8,174.9z"/>
	<path class="st42" d="M160.8,166.9c1.9,2.5,1.6,5.3,1.1,8.1c-2.3-0.1-4.7-0.1-7-0.2c-1.4-1.7-0.8-3.2,0.5-4.6
		c2.3-0.7,2.5-2.8,3.1-4.7C159.6,165.5,160.4,165.8,160.8,166.9z"/>
	<path class="st43" d="M158.5,165.5c0.7,2.4,3.9,5.8-2.3,5.1c-2.5,0.6-3.6-0.6-3.9-2.9c0.1-1.3-0.3-2.9,1.4-3.5
		C155.4,164.6,156.9,165.1,158.5,165.5z"/>
	<path class="st44" d="M152.3,167.7c1.5,0.8,1.8,3,3.9,2.9c-1.6,1.1-1.2,2.7-1.3,4.2c-1.3,0.9-2.5,1.8-3.8,2.7
		c-1.9,1.2-3.4,0.5-4.7-0.9c-0.3-0.5-0.6-1.1-0.6-1.7c-0.1-0.9,0.2-1.8,0.9-2.4C146.4,168.4,149.4,168.1,152.3,167.7z"/>
	<path class="st45" d="M146.7,176.1c1.5,0.5,3,1,4.5,1.5c0,2.2,0,4.4,0,6.6c-2.6,0-5.3,1.1-7.7-0.8c0.1-0.4,0.2-0.8,0.3-1.3
		c0.7-1.6,1-3.3,1.1-5C145.3,176.3,145.7,175.7,146.7,176.1z"/>
	<path class="st46" d="M249.3,171.7c0.9-1.7,2-3.2,3.8-4.1c1.5,0.5,3,0.9,4.4,1.4l0.1,0.2c0.1,1.9,0.1,3.7,0.2,5.6
		c-0.9,1.5-2.5,1.9-3.9,2.7c-1.2-0.6-2.4-1.2-3.6-1.8c-0.8-0.1-1.4-0.5-1.7-1.2C248.4,173.5,248.5,172.5,249.3,171.7z"/>
	<path class="st47" d="M249.3,174.5c0.4,0.4,0.7,0.8,1.1,1.3c-0.8,0.6-1.5,1.1-2.3,1.7c-1.1,1.4-2.3,2.5-4.3,2.2
		c-0.5-1.5-1-3-1.5-4.5C244.5,173.1,246.9,173,249.3,174.5z"/>
	<path class="st48" d="M243.8,179.6c1.5-0.5,2.3-2.6,4.3-2.2c1.1,2,3.1,4.4-1.5,4.7C244.7,182.3,244.2,181.1,243.8,179.6z"/>
	<path class="st49" d="M249.3,174.5c-2.3,0.2-4.7,0.4-7,0.6c-0.8-1.6-0.6-3.2-0.1-4.8c2.4,0.5,4.7,1,7.1,1.5
		C249.3,172.6,249.3,173.6,249.3,174.5z"/>
	<path class="st50" d="M257.5,169c-0.4-1.5-2.6-3.3-0.4-4.6c1.7-1,3.3,0.7,4.4,2.1c0.9,1.1,2.9,2.2,1.2,3.9c-2,2-3.4-0.7-5.1-1.2
		C257.7,169.2,257.5,169,257.5,169z"/>
	<path class="st51" d="M146.6,172.5c0,0.7,0,1.3,0,2c-2.2,2.4-4.5,2.2-7,0.5c-1.1-1.6-0.8-3.1,0.1-4.6
		C142,171.1,144.3,171.8,146.6,172.5z"/>
	<path class="st52" d="M139.7,175c2.3-0.2,4.7-0.4,7-0.5c0,0.5,0,1.1,0,1.6c-0.4,0.4-0.8,0.9-1.2,1.3c-1.5,1.2-1.9,3.8-4.6,3.2
		C139.3,179.1,139.6,177,139.7,175z"/>
	<path class="st53" d="M140.9,180.7c1.8-0.7,1.8-3.9,4.6-3.2c1.2,2.2,2.5,4.5-1.7,4.7C142.5,182.3,141.4,182.2,140.9,180.7z"/>
</g>
</svg>
